M48
; DRILL file KiCad 10.0.0 date 2026-04-15T08:46:52
; FORMAT={-:-/ absolute / metric / decimal}
; #@! TF.CreationDate,2026-04-15T08:46:52-04:00
; #@! TF.GenerationSoftware,Kicad,Pcbnew,10.0.0
; #@! TF.FileFunction,Plated,1,2,PTH
FMAT,2
METRIC
; #@! TA.AperFunction,Plated,PTH,ComponentDrill
T1C0.800
; #@! TA.AperFunction,Plated,PTH,ComponentDrill
T2C1.000
; #@! TA.AperFunction,Plated,PTH,ViaDrill
T3C1.016
; #@! TA.AperFunction,Plated,PTH,ComponentDrill
T4C1.300
%
G90
G05
T1
X50.553Y-130.938
X51.22Y-92.16
X51.22Y-104.66
X51.348Y-138.938
X52.045Y-114.16
X53.34Y-122.16
X53.848Y-138.938
X55.553Y-130.938
X55.84Y-122.16
X57.045Y-114.16
X58.84Y-92.16
X58.84Y-104.66
X59.92Y-41.83
X64.92Y-41.83
X72.492Y-43.8
X75.184Y-40.335
X78.791Y-50.394
X78.791Y-55.394
X79.38Y-140.2
X80.112Y-43.8
X80.184Y-40.335
X87.0Y-140.2
X88.251Y-40.236
X88.251Y-45.236
X88.251Y-47.729
X88.251Y-55.349
X88.38Y-145.0
X89.6Y-140.4
X94.6Y-140.4
X96.0Y-145.0
X108.864Y-54.322
X108.944Y-44.797
X108.944Y-51.147
X108.991Y-48.099
X109.22Y-104.775
X109.22Y-111.125
X109.22Y-114.935
X113.944Y-44.797
X113.944Y-51.147
X116.484Y-54.322
X116.611Y-48.099
X116.84Y-104.775
X116.84Y-111.125
X116.84Y-114.935
X123.622Y-94.513
X123.622Y-97.561
X126.644Y-105.359
X126.644Y-112.979
X131.242Y-94.513
X131.242Y-97.561
X140.98Y-140.0
X141.107Y-136.698
X148.6Y-140.0
X148.727Y-136.698
X182.2Y-92.2
X182.2Y-95.52
X182.2Y-99.4
X183.896Y-104.648
X184.023Y-109.474
X184.023Y-112.776
X189.82Y-92.2
X189.82Y-95.52
X189.82Y-99.4
X191.516Y-104.648
X191.643Y-109.474
X191.643Y-112.776
T2
X63.76Y-48.33
X63.76Y-50.87
X63.76Y-53.41
X63.76Y-55.95
X63.76Y-58.49
X63.76Y-61.03
X65.84Y-74.12
X65.84Y-76.66
X65.84Y-79.2
X65.84Y-81.74
X65.84Y-84.28
X65.84Y-86.82
X65.84Y-89.36
X65.84Y-91.9
X65.84Y-94.44
X65.84Y-96.98
X65.84Y-99.52
X65.84Y-102.06
X65.84Y-104.6
X65.84Y-107.14
X65.84Y-109.68
X65.84Y-112.22
X65.84Y-114.76
X65.84Y-117.3
X65.84Y-119.84
X66.86Y-125.14
X66.86Y-127.68
X66.86Y-130.22
X66.86Y-132.76
X66.86Y-135.3
X66.86Y-137.84
X66.86Y-140.38
X66.86Y-142.92
X66.86Y-145.46
X66.86Y-148.0
X68.38Y-74.12
X68.38Y-76.66
X68.38Y-79.2
X68.38Y-81.74
X68.38Y-84.28
X68.38Y-86.82
X68.38Y-89.36
X68.38Y-91.9
X68.38Y-94.44
X68.38Y-96.98
X68.38Y-99.52
X68.38Y-102.06
X68.38Y-104.6
X68.38Y-107.14
X68.38Y-109.68
X68.38Y-112.22
X68.38Y-114.76
X68.38Y-117.3
X68.38Y-119.84
X72.48Y-74.1
X72.48Y-76.64
X72.48Y-79.18
X72.48Y-81.72
X72.48Y-84.26
X72.48Y-86.8
X72.48Y-89.34
X72.48Y-91.88
X72.48Y-94.42
X72.48Y-96.96
X72.48Y-99.5
X72.48Y-102.04
X72.48Y-104.58
X72.48Y-107.12
X72.48Y-109.66
X72.48Y-112.2
X72.48Y-114.74
X72.48Y-117.28
X72.48Y-119.82
X72.86Y-130.22
X72.86Y-132.76
X72.86Y-135.3
X72.86Y-137.84
X72.86Y-140.38
X72.86Y-142.92
X72.86Y-145.46
X72.86Y-148.0
X73.92Y-48.33
X73.92Y-50.87
X73.92Y-53.41
X73.92Y-55.95
X73.92Y-58.49
X73.92Y-61.03
X75.4Y-130.22
X75.4Y-132.76
X75.4Y-135.3
X75.4Y-137.84
X75.4Y-140.38
X75.4Y-142.92
X75.4Y-145.46
X75.4Y-148.0
X83.889Y-41.517
X83.889Y-44.057
X83.889Y-46.597
X83.889Y-49.137
X83.889Y-51.677
X94.349Y-44.977
X94.349Y-47.517
X94.349Y-50.057
X94.349Y-52.597
X94.349Y-55.137
X95.34Y-74.1
X95.34Y-76.64
X95.34Y-79.18
X95.34Y-81.72
X95.34Y-84.26
X95.34Y-86.8
X95.34Y-89.34
X95.34Y-91.88
X95.34Y-94.42
X95.34Y-96.96
X95.34Y-99.5
X95.34Y-102.04
X95.34Y-104.58
X95.34Y-107.12
X95.34Y-109.66
X95.34Y-112.2
X95.34Y-114.74
X95.34Y-117.28
X95.34Y-119.82
X96.889Y-44.977
X96.889Y-47.517
X96.889Y-50.057
X96.889Y-52.597
X96.889Y-55.137
X99.3Y-74.16
X99.3Y-76.7
X99.3Y-79.24
X99.3Y-81.78
X99.3Y-84.32
X99.3Y-86.86
X99.3Y-89.4
X99.3Y-91.94
X99.3Y-94.48
X99.3Y-97.02
X99.3Y-99.56
X99.3Y-102.1
X99.3Y-104.64
X99.3Y-107.18
X99.3Y-109.72
X99.3Y-112.26
X99.3Y-114.8
X99.3Y-117.34
X99.3Y-119.88
X101.84Y-74.16
X101.84Y-76.7
X101.84Y-79.24
X101.84Y-81.78
X101.84Y-84.32
X101.84Y-86.86
X101.84Y-89.4
X101.84Y-91.94
X101.84Y-94.48
X101.84Y-97.02
X101.84Y-99.56
X101.84Y-102.1
X101.84Y-104.64
X101.84Y-107.18
X101.84Y-109.72
X101.84Y-112.26
X101.84Y-114.8
X101.84Y-117.34
X101.84Y-119.88
X104.634Y-45.062
X104.634Y-47.602
X104.634Y-50.142
X104.634Y-52.682
X104.634Y-55.222
X106.045Y-104.648
X106.045Y-107.188
X126.949Y-41.453
X126.949Y-43.993
X126.949Y-46.533
X126.949Y-49.073
X126.949Y-51.613
X126.949Y-54.153
X126.949Y-56.693
X126.949Y-59.233
X126.949Y-61.773
X126.949Y-64.313
X126.949Y-66.853
X126.949Y-69.393
X129.489Y-41.453
X129.489Y-43.993
X129.489Y-46.533
X129.489Y-49.073
X129.489Y-51.613
X129.489Y-54.153
X129.489Y-56.693
X129.489Y-59.233
X129.489Y-61.773
X129.489Y-64.313
X129.489Y-66.853
X129.489Y-69.393
X138.608Y-74.89
X138.608Y-77.43
X138.608Y-79.97
X138.608Y-82.51
X138.608Y-85.05
X138.608Y-87.59
X138.608Y-90.13
X138.608Y-92.67
X138.608Y-95.21
X138.608Y-97.75
X138.608Y-100.29
X138.608Y-102.83
X138.608Y-105.37
X138.608Y-107.91
X138.608Y-110.45
X138.608Y-112.99
X138.608Y-115.53
X138.608Y-118.07
X138.608Y-120.61
X141.148Y-74.89
X141.148Y-77.43
X141.148Y-79.97
X141.148Y-82.51
X141.148Y-85.05
X141.148Y-87.59
X141.148Y-90.13
X141.148Y-92.67
X141.148Y-95.21
X141.148Y-97.75
X141.148Y-100.29
X141.148Y-102.83
X141.148Y-105.37
X141.148Y-107.91
X141.148Y-110.45
X141.148Y-112.99
X141.148Y-115.53
X141.148Y-118.07
X141.148Y-120.61
X145.108Y-74.93
X145.108Y-77.47
X145.108Y-80.01
X145.108Y-82.55
X145.108Y-85.09
X145.108Y-87.63
X145.108Y-90.17
X145.108Y-92.71
X145.108Y-95.25
X145.108Y-97.79
X145.108Y-100.33
X145.108Y-102.87
X145.108Y-105.41
X145.108Y-107.95
X145.108Y-110.49
X145.108Y-113.03
X145.108Y-115.57
X145.108Y-118.11
X145.108Y-120.65
X149.188Y-41.93
X149.188Y-44.47
X149.188Y-47.01
X149.188Y-49.55
X149.188Y-52.09
X149.188Y-54.63
X149.188Y-57.17
X149.188Y-59.71
X151.728Y-41.93
X151.728Y-44.47
X151.728Y-47.01
X151.728Y-49.55
X151.728Y-52.09
X151.728Y-54.63
X151.728Y-57.17
X151.728Y-59.71
X155.082Y-139.993
X155.209Y-136.691
X162.702Y-139.993
X162.829Y-136.691
X167.26Y-133.92
X167.26Y-136.46
X167.26Y-139.0
X167.968Y-74.93
X167.968Y-77.47
X167.968Y-80.01
X167.968Y-82.55
X167.968Y-85.09
X167.968Y-87.63
X167.968Y-90.17
X167.968Y-92.71
X167.968Y-95.25
X167.968Y-97.79
X167.968Y-100.33
X167.968Y-102.87
X167.968Y-105.41
X167.968Y-107.95
X167.968Y-110.49
X167.968Y-113.03
X167.968Y-115.57
X167.968Y-118.11
X167.968Y-120.65
X169.8Y-133.92
X169.8Y-136.46
X169.8Y-139.0
X172.568Y-74.93
X172.568Y-77.47
X172.568Y-80.01
X172.568Y-82.55
X172.568Y-85.09
X172.568Y-87.63
X172.568Y-90.17
X172.568Y-92.71
X172.568Y-95.25
X172.568Y-97.79
X172.568Y-100.33
X172.568Y-102.87
X172.568Y-105.41
X172.568Y-107.95
X172.568Y-110.49
X172.568Y-113.03
X172.568Y-115.57
X172.568Y-118.11
X172.568Y-120.65
X174.504Y-49.927
X174.504Y-52.467
X174.504Y-55.007
X174.504Y-57.547
X174.504Y-60.087
X175.108Y-74.93
X175.108Y-77.47
X175.108Y-80.01
X175.108Y-82.55
X175.108Y-85.09
X175.108Y-87.63
X175.108Y-90.17
X175.108Y-92.71
X175.108Y-95.25
X175.108Y-97.79
X175.108Y-100.33
X175.108Y-102.87
X175.108Y-105.41
X175.108Y-107.95
X175.108Y-110.49
X175.108Y-113.03
X175.108Y-115.57
X175.108Y-118.11
X175.108Y-120.65
X175.72Y-131.484
X175.72Y-134.024
X175.72Y-136.564
X175.72Y-139.104
X175.72Y-141.644
X175.72Y-144.184
X177.044Y-49.927
X177.044Y-52.467
X177.044Y-55.007
X177.044Y-57.547
X177.044Y-60.087
X179.965Y-105.299
X179.965Y-107.839
T3
X69.342Y-70.814
X113.538Y-91.948
X117.157Y-67.158
X130.429Y-109.169
X133.94Y-111.379
X150.368Y-69.85
X154.229Y-127.965
X157.988Y-122.733
X158.94Y-68.199
X161.163Y-74.676
X162.255Y-112.166
X163.94Y-74.8
X165.989Y-70.485
T4
X158.108Y-46.58
X163.188Y-46.58
M30
