M48
; DRILL file KiCad 10.0.0 date 2026-04-17T10:22:55
; FORMAT={-:-/ absolute / metric / decimal}
; #@! TF.CreationDate,2026-04-17T10:22:55-04:00
; #@! TF.GenerationSoftware,Kicad,Pcbnew,10.0.0
; #@! TF.FileFunction,Plated,1,2,PTH
FMAT,2
METRIC
; #@! TA.AperFunction,Plated,PTH,ComponentDrill
T1C1.000
%
G90
G05
T1
X123.94Y-55.825
X123.94Y-58.365
X123.94Y-60.905
X123.94Y-63.445
X123.94Y-65.985
X126.48Y-55.825
X126.48Y-58.365
X126.48Y-60.905
X126.48Y-63.445
X126.48Y-65.985
X135.06Y-55.8
X135.06Y-58.34
X135.06Y-60.88
X135.06Y-63.42
X135.06Y-65.96
X137.6Y-55.8
X137.6Y-58.34
X137.6Y-60.88
X137.6Y-63.42
X137.6Y-65.96
M30
