%TF.GenerationSoftware,KiCad,Pcbnew,10.0.0*%
%TF.CreationDate,2026-04-17T10:23:14-04:00*%
%TF.ProjectId,10pinBoxAdapter,31307069-6e42-46f7-9841-646170746572,rev?*%
%TF.SameCoordinates,Original*%
%TF.FileFunction,Copper,L2,Bot*%
%TF.FilePolarity,Positive*%
%FSLAX46Y46*%
G04 Gerber Fmt 4.6, Leading zero omitted, Abs format (unit mm)*
G04 Created by KiCad (PCBNEW 10.0.0) date 2026-04-17 10:23:14*
%MOMM*%
%LPD*%
G01*
G04 APERTURE LIST*
G04 Aperture macros list*
%AMRoundRect*
0 Rectangle with rounded corners*
0 $1 Rounding radius*
0 $2 $3 $4 $5 $6 $7 $8 $9 X,Y pos of 4 corners*
0 Add a 4 corners polygon primitive as box body*
4,1,4,$2,$3,$4,$5,$6,$7,$8,$9,$2,$3,0*
0 Add four circle primitives for the rounded corners*
1,1,$1+$1,$2,$3*
1,1,$1+$1,$4,$5*
1,1,$1+$1,$6,$7*
1,1,$1+$1,$8,$9*
0 Add four rect primitives between the rounded corners*
20,1,$1+$1,$2,$3,$4,$5,0*
20,1,$1+$1,$4,$5,$6,$7,0*
20,1,$1+$1,$6,$7,$8,$9,0*
20,1,$1+$1,$8,$9,$2,$3,0*%
G04 Aperture macros list end*
%TA.AperFunction,ComponentPad*%
%ADD10C,1.700000*%
%TD*%
%TA.AperFunction,ComponentPad*%
%ADD11RoundRect,0.250000X0.600000X0.600000X-0.600000X0.600000X-0.600000X-0.600000X0.600000X-0.600000X0*%
%TD*%
%TA.AperFunction,ComponentPad*%
%ADD12RoundRect,0.250000X-0.600000X-0.600000X0.600000X-0.600000X0.600000X0.600000X-0.600000X0.600000X0*%
%TD*%
%TA.AperFunction,Conductor*%
%ADD13C,0.508000*%
%TD*%
G04 APERTURE END LIST*
D10*
%TO.P,J2,10,Pin_10_10*%
%TO.N,Net-(J1-Pin_10)*%
X135060000Y-65960000D03*
%TO.P,J2,9,Pin_9_9*%
%TO.N,Net-(J1-Pin_9)*%
X137600000Y-65960000D03*
%TO.P,J2,8,Pin_8_8*%
%TO.N,Net-(J1-Pin_8)*%
X135060000Y-63420000D03*
%TO.P,J2,7,Pin_7_7*%
%TO.N,Net-(J1-Pin_7)*%
X137600000Y-63420000D03*
%TO.P,J2,6,Pin_6_6*%
%TO.N,Net-(J1-Pin_6)*%
X135060000Y-60880000D03*
%TO.P,J2,5,Pin_5_5*%
%TO.N,Net-(J1-Pin_5)*%
X137600000Y-60880000D03*
%TO.P,J2,4,Pin_4_4*%
%TO.N,Net-(J1-Pin_4)*%
X135060000Y-58340000D03*
%TO.P,J2,3,Pin_3_3*%
%TO.N,Net-(J1-Pin_3)*%
X137600000Y-58340000D03*
%TO.P,J2,2,Pin_2_2*%
%TO.N,Net-(J1-Pin_2)*%
X135060000Y-55800000D03*
D11*
%TO.P,J2,1,Pin_1_1*%
%TO.N,Net-(J1-Pin_1)*%
X137600000Y-55800000D03*
%TD*%
D12*
%TO.P,J1,1,Pin_1_1*%
%TO.N,Net-(J1-Pin_1)*%
X123940000Y-55825000D03*
D10*
%TO.P,J1,2,Pin_2_2*%
%TO.N,Net-(J1-Pin_2)*%
X126480000Y-55825000D03*
%TO.P,J1,3,Pin_3_3*%
%TO.N,Net-(J1-Pin_3)*%
X123940000Y-58365000D03*
%TO.P,J1,4,Pin_4_4*%
%TO.N,Net-(J1-Pin_4)*%
X126480000Y-58365000D03*
%TO.P,J1,5,Pin_5_5*%
%TO.N,Net-(J1-Pin_5)*%
X123940000Y-60905000D03*
%TO.P,J1,6,Pin_6_6*%
%TO.N,Net-(J1-Pin_6)*%
X126480000Y-60905000D03*
%TO.P,J1,7,Pin_7_7*%
%TO.N,Net-(J1-Pin_7)*%
X123940000Y-63445000D03*
%TO.P,J1,8,Pin_8_8*%
%TO.N,Net-(J1-Pin_8)*%
X126480000Y-63445000D03*
%TO.P,J1,9,Pin_9_9*%
%TO.N,Net-(J1-Pin_9)*%
X123940000Y-65985000D03*
%TO.P,J1,10,Pin_10_10*%
%TO.N,Net-(J1-Pin_10)*%
X126480000Y-65985000D03*
%TD*%
%TO.N,Net-(J1-Pin_5)*%
D13*
X140560000Y-60880000D02*
X137600000Y-60880000D01*
X142200000Y-62520000D02*
X140560000Y-60880000D01*
X122000000Y-72400000D02*
X138800000Y-72400000D01*
X119400000Y-62400000D02*
X119400000Y-69800000D01*
X120895000Y-60905000D02*
X119400000Y-62400000D01*
X138800000Y-72400000D02*
X142200000Y-69000000D01*
X123940000Y-60905000D02*
X120895000Y-60905000D01*
X119400000Y-69800000D02*
X122000000Y-72400000D01*
X142200000Y-69000000D02*
X142200000Y-62520000D01*
%TO.N,Net-(J1-Pin_7)*%
X122245000Y-63445000D02*
X123940000Y-63445000D01*
X122000000Y-63200000D02*
X122245000Y-63445000D01*
X121200000Y-64000000D02*
X122000000Y-63200000D01*
X121200000Y-69200000D02*
X121200000Y-64000000D01*
X122400000Y-70400000D02*
X121200000Y-69200000D01*
X140600000Y-67800000D02*
X138000000Y-70400000D01*
X139820000Y-63420000D02*
X140600000Y-64200000D01*
X140600000Y-64200000D02*
X140600000Y-67800000D01*
X137600000Y-63420000D02*
X139820000Y-63420000D01*
X138000000Y-70400000D02*
X122400000Y-70400000D01*
%TO.N,Net-(J1-Pin_9)*%
X137600000Y-67800000D02*
X137600000Y-65960000D01*
X124600000Y-68200000D02*
X137200000Y-68200000D01*
X137200000Y-68200000D02*
X137600000Y-67800000D01*
X123940000Y-65985000D02*
X123940000Y-67540000D01*
X123940000Y-67540000D02*
X124600000Y-68200000D01*
%TO.N,Net-(J1-Pin_3)*%
X122600000Y-58400000D02*
X122635000Y-58365000D01*
X122200000Y-58400000D02*
X122600000Y-58400000D01*
X121600000Y-53000000D02*
X121600000Y-57800000D01*
X122635000Y-58365000D02*
X123940000Y-58365000D01*
X123200000Y-51400000D02*
X121600000Y-53000000D01*
X140000000Y-58200000D02*
X140000000Y-54200000D01*
X121600000Y-57800000D02*
X122200000Y-58400000D01*
X139860000Y-58340000D02*
X140000000Y-58200000D01*
X140000000Y-54200000D02*
X137200000Y-51400000D01*
X137600000Y-58340000D02*
X139860000Y-58340000D01*
X137200000Y-51400000D02*
X123200000Y-51400000D01*
%TO.N,Net-(J1-Pin_1)*%
X137600000Y-54200000D02*
X137600000Y-55800000D01*
X136600000Y-53200000D02*
X137600000Y-54200000D01*
X124400000Y-53200000D02*
X136600000Y-53200000D01*
X123940000Y-55825000D02*
X123940000Y-53660000D01*
X123940000Y-53660000D02*
X124400000Y-53200000D01*
%TO.N,Net-(J1-Pin_2)*%
X126480000Y-55825000D02*
X135035000Y-55825000D01*
%TO.N,Net-(J1-Pin_4)*%
X135035000Y-58365000D02*
X135060000Y-58340000D01*
X126480000Y-58365000D02*
X135035000Y-58365000D01*
%TO.N,Net-(J1-Pin_2)*%
X135035000Y-55825000D02*
X135060000Y-55800000D01*
%TO.N,Net-(J1-Pin_8)*%
X126480000Y-63445000D02*
X135035000Y-63445000D01*
%TO.N,Net-(J1-Pin_10)*%
X135035000Y-65985000D02*
X135060000Y-65960000D01*
X126480000Y-65985000D02*
X135035000Y-65985000D01*
%TO.N,Net-(J1-Pin_6)*%
X126480000Y-60905000D02*
X135035000Y-60905000D01*
%TO.N,Net-(J1-Pin_8)*%
X135035000Y-63445000D02*
X135060000Y-63420000D01*
%TO.N,Net-(J1-Pin_6)*%
X135035000Y-60905000D02*
X135060000Y-60880000D01*
%TD*%
%TA.AperFunction,NonConductor*%
G36*
X143442539Y-49320185D02*
G01*
X143488294Y-49372989D01*
X143499500Y-49424500D01*
X143499500Y-61765471D01*
X143479815Y-61832510D01*
X143427011Y-61878265D01*
X143357853Y-61888209D01*
X143294297Y-61859184D01*
X143275182Y-61838357D01*
X143223338Y-61767001D01*
X143169083Y-61692325D01*
X143027675Y-61550917D01*
X141387675Y-59910917D01*
X141225887Y-59793371D01*
X141047700Y-59702579D01*
X140857511Y-59640784D01*
X140758750Y-59625142D01*
X140659991Y-59609500D01*
X140659990Y-59609500D01*
X140655819Y-59609500D01*
X140588780Y-59589815D01*
X140543025Y-59537011D01*
X140533081Y-59467853D01*
X140562106Y-59404297D01*
X140582934Y-59385182D01*
X140605095Y-59369081D01*
X140687675Y-59309083D01*
X140969084Y-59027675D01*
X140969086Y-59027671D01*
X140969089Y-59027669D01*
X141086626Y-58865891D01*
X141086625Y-58865891D01*
X141086629Y-58865887D01*
X141177419Y-58687703D01*
X141185605Y-58662510D01*
X141239216Y-58497510D01*
X141270500Y-58299991D01*
X141270500Y-54100009D01*
X141239216Y-53902490D01*
X141177419Y-53712297D01*
X141086629Y-53534113D01*
X140969083Y-53372325D01*
X140827675Y-53230917D01*
X138027675Y-50430917D01*
X137865887Y-50313371D01*
X137865885Y-50313370D01*
X137687700Y-50222579D01*
X137497511Y-50160784D01*
X137398750Y-50145142D01*
X137299991Y-50129500D01*
X123100009Y-50129500D01*
X123034169Y-50139928D01*
X122902488Y-50160784D01*
X122712299Y-50222579D01*
X122712296Y-50222580D01*
X122534110Y-50313372D01*
X122372331Y-50430910D01*
X122372326Y-50430914D01*
X120772325Y-52030917D01*
X120630919Y-52172322D01*
X120630919Y-52172323D01*
X120630917Y-52172325D01*
X120580435Y-52241806D01*
X120513371Y-52334112D01*
X120422579Y-52512299D01*
X120360784Y-52702488D01*
X120329500Y-52900009D01*
X120329500Y-57899990D01*
X120360784Y-58097511D01*
X120422579Y-58287700D01*
X120428842Y-58299991D01*
X120513371Y-58465887D01*
X120630917Y-58627675D01*
X121372325Y-59369083D01*
X121420793Y-59404297D01*
X121428893Y-59410182D01*
X121471558Y-59465513D01*
X121477537Y-59535126D01*
X121444931Y-59596921D01*
X121384092Y-59631278D01*
X121356007Y-59634500D01*
X120994990Y-59634500D01*
X120795009Y-59634500D01*
X120729169Y-59644928D01*
X120597488Y-59665784D01*
X120407299Y-59727579D01*
X120229112Y-59818371D01*
X120136806Y-59885435D01*
X120067325Y-59935917D01*
X120067323Y-59935919D01*
X120067322Y-59935919D01*
X118430919Y-61572322D01*
X118430919Y-61572323D01*
X118430917Y-61572325D01*
X118377773Y-61645471D01*
X118324818Y-61718357D01*
X118269488Y-61761022D01*
X118199874Y-61767001D01*
X118138079Y-61734395D01*
X118103722Y-61673556D01*
X118100500Y-61645471D01*
X118100500Y-49424500D01*
X118120185Y-49357461D01*
X118172989Y-49311706D01*
X118224500Y-49300500D01*
X143375500Y-49300500D01*
X143442539Y-49320185D01*
G37*
%TD.AperFunction*%
%TA.AperFunction,NonConductor*%
G36*
X139294218Y-67050793D02*
G01*
X139326971Y-67112510D01*
X139329500Y-67137425D01*
X139329500Y-67222380D01*
X139309815Y-67289419D01*
X139293181Y-67310061D01*
X139082181Y-67521061D01*
X139020858Y-67554546D01*
X138951166Y-67549562D01*
X138895233Y-67507690D01*
X138870816Y-67442226D01*
X138870500Y-67433380D01*
X138870500Y-67380492D01*
X138890185Y-67313453D01*
X138906814Y-67292815D01*
X139006320Y-67193310D01*
X139107124Y-67061938D01*
X139163551Y-67020736D01*
X139233297Y-67016581D01*
X139294218Y-67050793D01*
G37*
%TD.AperFunction*%
%TA.AperFunction,NonConductor*%
G36*
X122675703Y-67817962D02*
G01*
X122712431Y-67873357D01*
X122762579Y-68027700D01*
X122762581Y-68027703D01*
X122853371Y-68205887D01*
X122970917Y-68367675D01*
X122970919Y-68367677D01*
X123521060Y-68917819D01*
X123554545Y-68979142D01*
X123549561Y-69048834D01*
X123507689Y-69104767D01*
X123442225Y-69129184D01*
X123433379Y-69129500D01*
X122977620Y-69129500D01*
X122910581Y-69109815D01*
X122889939Y-69093181D01*
X122506819Y-68710061D01*
X122473334Y-68648738D01*
X122470500Y-68622380D01*
X122470500Y-67911675D01*
X122490185Y-67844636D01*
X122542989Y-67798881D01*
X122612147Y-67788937D01*
X122675703Y-67817962D01*
G37*
%TD.AperFunction*%
%TA.AperFunction,NonConductor*%
G36*
X143461920Y-69665604D02*
G01*
X143496278Y-69726443D01*
X143499500Y-69754528D01*
X143499500Y-72975500D01*
X143479815Y-73042539D01*
X143427011Y-73088294D01*
X143375500Y-73099500D01*
X140196620Y-73099500D01*
X140129581Y-73079815D01*
X140083826Y-73027011D01*
X140073882Y-72957853D01*
X140102907Y-72894297D01*
X140108939Y-72887819D01*
X143169083Y-69827675D01*
X143275182Y-69681641D01*
X143330512Y-69638977D01*
X143400125Y-69632998D01*
X143461920Y-69665604D01*
G37*
%TD.AperFunction*%
%TA.AperFunction,NonConductor*%
G36*
X118305703Y-70460815D02*
G01*
X118324816Y-70481640D01*
X118430917Y-70627675D01*
X118430919Y-70627677D01*
X120691061Y-72887819D01*
X120724546Y-72949142D01*
X120719562Y-73018834D01*
X120677690Y-73074767D01*
X120612226Y-73099184D01*
X120603380Y-73099500D01*
X118224500Y-73099500D01*
X118157461Y-73079815D01*
X118111706Y-73027011D01*
X118100500Y-72975500D01*
X118100500Y-70554528D01*
X118120185Y-70487489D01*
X118172989Y-70441734D01*
X118242147Y-70431790D01*
X118305703Y-70460815D01*
G37*
%TD.AperFunction*%
M02*
