%TF.GenerationSoftware,KiCad,Pcbnew,10.0.0*%
%TF.CreationDate,2026-04-17T10:23:14-04:00*%
%TF.ProjectId,10pinBoxAdapter,31307069-6e42-46f7-9841-646170746572,rev?*%
%TF.SameCoordinates,Original*%
%TF.FileFunction,Legend,Top*%
%TF.FilePolarity,Positive*%
%FSLAX46Y46*%
G04 Gerber Fmt 4.6, Leading zero omitted, Abs format (unit mm)*
G04 Created by KiCad (PCBNEW 10.0.0) date 2026-04-17 10:23:14*
%MOMM*%
%LPD*%
G01*
G04 APERTURE LIST*
%ADD10C,0.150000*%
%ADD11C,0.120000*%
G04 APERTURE END LIST*
D10*
X124876666Y-49179819D02*
X124876666Y-49894104D01*
X124876666Y-49894104D02*
X124829047Y-50036961D01*
X124829047Y-50036961D02*
X124733809Y-50132200D01*
X124733809Y-50132200D02*
X124590952Y-50179819D01*
X124590952Y-50179819D02*
X124495714Y-50179819D01*
X125876666Y-50179819D02*
X125305238Y-50179819D01*
X125590952Y-50179819D02*
X125590952Y-49179819D01*
X125590952Y-49179819D02*
X125495714Y-49322676D01*
X125495714Y-49322676D02*
X125400476Y-49417914D01*
X125400476Y-49417914D02*
X125305238Y-49465533D01*
%TO.C,J1*%
D11*
X119260000Y-55325000D02*
X119260000Y-56325000D01*
X119260000Y-56325000D02*
X120260000Y-55825000D01*
X120260000Y-55825000D02*
X119260000Y-55325000D01*
X120650000Y-50615000D02*
X129770000Y-50615000D01*
X120650000Y-58855000D02*
X121960000Y-58855000D01*
X120650000Y-71195000D02*
X120650000Y-50615000D01*
X121960000Y-51915000D02*
X128460000Y-51915000D01*
X121960000Y-58855000D02*
X121960000Y-51915000D01*
X121960000Y-62955000D02*
X120650000Y-62955000D01*
X121960000Y-69895000D02*
X121960000Y-62955000D01*
X128460000Y-51915000D02*
X128460000Y-69895000D01*
X128460000Y-69895000D02*
X121960000Y-69895000D01*
X129770000Y-50615000D02*
X129770000Y-71195000D01*
X129770000Y-71195000D02*
X120650000Y-71195000D01*
%TD*%
M02*
